<svg width="75" height="75" viewBox="0 0 75 75" fill="none" xmlns="http://www.w3.org/2000/svg">
<circle cx="37.5" cy="37.5" r="37.5" fill="#FFF2F1"/>
<path d="M38.0002 47.6666L48.6668 36.9999L44.9335 33.2666L40.6668 37.5332V26.3333H35.3335V37.5332L31.0668 33.2666L27.3335 36.9999L38.0002 47.6666ZM38.0002 63.6666C34.3113 63.6666 30.8446 62.9661 27.6002 61.5652C24.3557 60.1661 21.5335 58.2666 19.1335 55.8666C16.7335 53.4666 14.8339 50.6444 13.4348 47.3999C12.0339 44.1555 11.3335 40.6888 11.3335 36.9999C11.3335 33.311 12.0339 29.8444 13.4348 26.5999C14.8339 23.3555 16.7335 20.5333 19.1335 18.1333C21.5335 15.7333 24.3557 13.8328 27.6002 12.4319C30.8446 11.0328 34.3113 10.3333 38.0002 10.3333C41.689 10.3333 45.1557 11.0328 48.4002 12.4319C51.6446 13.8328 54.4668 15.7333 56.8668 18.1333C59.2668 20.5333 61.1664 23.3555 62.5655 26.5999C63.9664 29.8444 64.6668 33.311 64.6668 36.9999C64.6668 40.6888 63.9664 44.1555 62.5655 47.3999C61.1664 50.6444 59.2668 53.4666 56.8668 55.8666C54.4668 58.2666 51.6446 60.1661 48.4002 61.5652C45.1557 62.9661 41.689 63.6666 38.0002 63.6666Z" fill="#212738"/>
</svg>
