<svg width="56" height="56" viewBox="0 0 56 56" fill="none" xmlns="http://www.w3.org/2000/svg">
<path d="M48.9998 16.3333H34.9998C34.381 16.3333 33.7875 16.5792 33.3499 17.0168C32.9123 17.4543 32.6665 18.0478 32.6665 18.6667V25.6667H27.9998V9.33333C27.9998 8.71449 27.754 8.121 27.3164 7.68342C26.8788 7.24583 26.2853 7 25.6665 7H6.99984C6.381 7 5.78751 7.24583 5.34992 7.68342C4.91234 8.121 4.6665 8.71449 4.6665 9.33333V46.6667C4.6665 47.2855 4.91234 47.879 5.34992 48.3166C5.78751 48.7542 6.381 49 6.99984 49H48.9998C49.6187 49 50.2122 48.7542 50.6498 48.3166C51.0873 47.879 51.3332 47.2855 51.3332 46.6667V18.6667C51.3332 18.0478 51.0873 17.4543 50.6498 17.0168C50.2122 16.5792 49.6187 16.3333 48.9998 16.3333ZM18.6665 14H23.3332V18.6667H18.6665V14ZM13.9998 37.3333H9.33317V32.6667H13.9998V37.3333ZM13.9998 28H9.33317V23.3333H13.9998V28ZM13.9998 18.6667H9.33317V14H13.9998V18.6667ZM23.3332 37.3333H18.6665V32.6667H23.3332V37.3333ZM23.3332 28H18.6665V23.3333H23.3332V28ZM44.3332 37.3333H39.6665V32.6667H44.3332V37.3333ZM44.3332 28H39.6665V23.3333H44.3332V28Z" fill="black"/>
</svg>
