<svg width="24" height="25" viewBox="0 0 24 25" fill="none" xmlns="http://www.w3.org/2000/svg">
<path d="M12 14.5C11.7167 14.5 11.4793 14.404 11.288 14.212C11.096 14.0207 11 13.7833 11 13.5C11 13.2167 11.096 12.979 11.288 12.787C11.4793 12.5957 11.7167 12.5 12 12.5C12.2833 12.5 12.521 12.5957 12.713 12.787C12.9043 12.979 13 13.2167 13 13.5C13 13.7833 12.9043 14.0207 12.713 14.212C12.521 14.404 12.2833 14.5 12 14.5ZM8 14.5C7.71667 14.5 7.479 14.404 7.287 14.212C7.09567 14.0207 7 13.7833 7 13.5C7 13.2167 7.09567 12.979 7.287 12.787C7.479 12.5957 7.71667 12.5 8 12.5C8.28333 12.5 8.521 12.5957 8.713 12.787C8.90433 12.979 9 13.2167 9 13.5C9 13.7833 8.90433 14.0207 8.713 14.212C8.521 14.404 8.28333 14.5 8 14.5ZM16 14.5C15.7167 14.5 15.4793 14.404 15.288 14.212C15.096 14.0207 15 13.7833 15 13.5C15 13.2167 15.096 12.979 15.288 12.787C15.4793 12.5957 15.7167 12.5 16 12.5C16.2833 12.5 16.5207 12.5957 16.712 12.787C16.904 12.979 17 13.2167 17 13.5C17 13.7833 16.904 14.0207 16.712 14.212C16.5207 14.404 16.2833 14.5 16 14.5ZM12 18.5C11.7167 18.5 11.4793 18.404 11.288 18.212C11.096 18.0207 11 17.7833 11 17.5C11 17.2167 11.096 16.9793 11.288 16.788C11.4793 16.596 11.7167 16.5 12 16.5C12.2833 16.5 12.521 16.596 12.713 16.788C12.9043 16.9793 13 17.2167 13 17.5C13 17.7833 12.9043 18.0207 12.713 18.212C12.521 18.404 12.2833 18.5 12 18.5ZM8 18.5C7.71667 18.5 7.479 18.404 7.287 18.212C7.09567 18.0207 7 17.7833 7 17.5C7 17.2167 7.09567 16.9793 7.287 16.788C7.479 16.596 7.71667 16.5 8 16.5C8.28333 16.5 8.521 16.596 8.713 16.788C8.90433 16.9793 9 17.2167 9 17.5C9 17.7833 8.90433 18.0207 8.713 18.212C8.521 18.404 8.28333 18.5 8 18.5ZM16 18.5C15.7167 18.5 15.4793 18.404 15.288 18.212C15.096 18.0207 15 17.7833 15 17.5C15 17.2167 15.096 16.9793 15.288 16.788C15.4793 16.596 15.7167 16.5 16 16.5C16.2833 16.5 16.5207 16.596 16.712 16.788C16.904 16.9793 17 17.2167 17 17.5C17 17.7833 16.904 18.0207 16.712 18.212C16.5207 18.404 16.2833 18.5 16 18.5ZM5 22.5C4.45 22.5 3.979 22.3043 3.587 21.913C3.19567 21.521 3 21.05 3 20.5V6.5C3 5.95 3.19567 5.47933 3.587 5.088C3.979 4.696 4.45 4.5 5 4.5H6V3.5C6 3.21667 6.09567 2.979 6.287 2.787C6.479 2.59567 6.71667 2.5 7 2.5C7.28333 2.5 7.521 2.59567 7.713 2.787C7.90433 2.979 8 3.21667 8 3.5V4.5H16V3.5C16 3.21667 16.096 2.979 16.288 2.787C16.4793 2.59567 16.7167 2.5 17 2.5C17.2833 2.5 17.5207 2.59567 17.712 2.787C17.904 2.979 18 3.21667 18 3.5V4.5H19C19.55 4.5 20.021 4.696 20.413 5.088C20.8043 5.47933 21 5.95 21 6.5V20.5C21 21.05 20.8043 21.521 20.413 21.913C20.021 22.3043 19.55 22.5 19 22.5H5ZM5 20.5H19V10.5H5V20.5Z" fill="white"/>
</svg>
