<svg width="56" height="56" viewBox="0 0 56 56" fill="none" xmlns="http://www.w3.org/2000/svg">
<path d="M22.2087 51.3333C21.0654 47.6058 19.3411 44.8256 17.0346 42.9951C13.5754 40.25 8.07922 41.9568 6.04922 39.1241C4.01922 36.2915 7.47139 31.0835 8.68239 28.0105C9.89456 24.9375 4.03906 23.8513 4.72272 22.9786C5.17772 22.3965 8.13755 20.7188 13.5999 17.9433C15.1516 9.09296 20.8834 4.66663 30.7977 4.66663C45.6681 4.66663 51.3334 17.2736 51.3334 25.2933C51.3334 33.3106 44.4734 41.9486 34.7014 43.8118C33.8276 45.0835 35.0876 47.5918 38.4814 51.3333" stroke="black" stroke-width="5.44483" stroke-linecap="round" stroke-linejoin="round"/>
<path d="M22.7499 16.9167C21.9869 19.873 22.2132 21.9497 23.43 23.1455C24.6457 24.3402 26.7177 25.123 29.646 25.4905C28.981 29.3044 29.7919 31.0928 32.0762 30.8572C34.3605 30.6227 35.7337 29.673 36.1945 28.0105C39.7645 29.0139 41.7 28.1739 41.9999 25.4905C42.449 21.4655 40.279 18.256 39.3889 18.256C38.4999 18.256 36.1945 18.1475 36.1945 16.9167C36.1945 15.6859 33.5019 14.9917 31.0717 14.9917C28.6415 14.9917 30.1034 13.3525 26.7667 14C24.5419 14.4317 23.2025 15.4035 22.7499 16.9167Z" stroke="black" stroke-width="4.66667" stroke-linejoin="round"/>
<path d="M35.5834 29.75C34.3969 30.4862 32.7694 31.71 32.0834 32.6667C30.3696 35.0583 28.9801 36.5143 28.6768 38.0427" stroke="black" stroke-width="4.66667" stroke-linecap="round"/>
</svg>
