<svg width="57" height="56" viewBox="0 0 57 56" fill="none" xmlns="http://www.w3.org/2000/svg">
<path d="M35.1268 37.94C42.1735 39.27 47.1668 42.6767 47.1668 46.6667V51.3333H9.8335V46.6667C9.8335 42.6767 14.8268 39.27 21.8735 37.94L28.5002 49L35.1268 37.94ZM19.1668 18.6667H37.8335V23.3333C37.8335 25.8087 36.8502 28.1826 35.0998 29.933C33.3495 31.6833 30.9755 32.6667 28.5002 32.6667C26.0248 32.6667 23.6508 31.6833 21.9005 29.933C20.1502 28.1826 19.1668 25.8087 19.1668 23.3333V18.6667ZM19.1668 16.3333L20.1235 6.76666C20.1815 6.1891 20.4528 5.65392 20.8842 5.26561C21.3157 4.8773 21.8764 4.66375 22.4568 4.66666H34.5668C35.7568 4.66666 36.7602 5.57666 36.8768 6.76666L37.8335 16.3333H19.1668ZM28.5002 6.99999H26.1668V9.33332H23.8335V11.6667H26.1668V14H28.5002V11.6667H30.8335V9.33332H28.5002V6.99999Z" fill="black"/>
</svg>
