<svg width="24" height="24" viewBox="0 0 24 24" fill="none" xmlns="http://www.w3.org/2000/svg">
<g clip-path="url(#clip0_298_796)">
<path d="M9.1875 0.75C8.40844 0.75 7.78125 1.37719 7.78125 2.15625V7.78125H2.15625C1.37719 7.78125 0.75 8.40844 0.75 9.1875V14.8125C0.75 15.5916 1.37719 16.2188 2.15625 16.2188H7.78125V21.8438C7.78125 22.6228 8.40844 23.25 9.1875 23.25H14.8125C15.5916 23.25 16.2188 22.6228 16.2188 21.8438V16.2188H21.8438C22.6228 16.2188 23.25 15.5916 23.25 14.8125V9.1875C23.25 8.40844 22.6228 7.78125 21.8438 7.78125H16.2188V2.15625C16.2188 1.37719 15.5916 0.75 14.8125 0.75H9.1875ZM9.1875 7.07812H14.8125L12 9.89062L9.1875 7.07812ZM9.1875 10.5938H14.8125L12 13.4062L9.1875 10.5938ZM9.1875 14.1094H14.8125L12 16.9219L9.1875 14.1094Z" fill="#FFF2F1"/>
</g>
<defs>
<clipPath id="clip0_298_796">
<rect width="24" height="24" fill="white"/>
</clipPath>
</defs>
</svg>
