<svg width="57" height="56" viewBox="0 0 57 56" fill="none" xmlns="http://www.w3.org/2000/svg">
<path d="M28.5002 7C33.6568 7 37.8335 11.1767 37.8335 16.3333C37.8335 21.49 33.6568 25.6667 28.5002 25.6667C23.3435 25.6667 19.1668 21.49 19.1668 16.3333C19.1668 11.1767 23.3435 7 28.5002 7ZM37.8335 31.5933C37.8335 34.0667 37.1802 39.83 32.7235 46.27L30.8335 35L33.0268 30.6133C31.5802 30.45 30.0635 30.3333 28.5002 30.3333C26.9368 30.3333 25.4202 30.45 23.9735 30.6133L26.1668 35L24.2768 46.27C19.8202 39.83 19.1668 34.0667 19.1668 31.5933C13.5902 33.2267 9.8335 36.1667 9.8335 39.6667V49H47.1668V39.6667C47.1668 36.1667 43.4335 33.2267 37.8335 31.5933Z" fill="black"/>
</svg>
